<svg width="22" height="18" viewBox="0 0 22 18" fill="none" xmlns="http://www.w3.org/2000/svg">
<path d="M3.5743 14.0496C3.70705 13.9211 3.88958 13.8462 4.08318 13.8462H21.6394C21.9602 13.8462 22.1206 14.2209 21.8938 14.4403L18.4257 17.7966C18.293 17.9251 18.1104 18 17.9168 18H0.360646C0.0398337 18 -0.120572 17.6253 0.106209 17.4058L3.5743 14.0496Z" fill="white"/>
<path d="M3.5743 0.20341C3.71258 0.0749405 3.89511 0 4.08318 0H21.6394C21.9602 0 22.1206 0.374703 21.8938 0.594171L18.4257 3.95044C18.293 4.07891 18.1104 4.15385 17.9168 4.15385H0.360646C0.0398337 4.15385 -0.120572 3.77914 0.106209 3.55967L3.5743 0.20341Z" fill="white"/>
<path d="M18.4257 7.12649C18.293 6.99802 18.1104 6.92308 17.9168 6.92308H0.360646C0.0398337 6.92308 -0.120572 7.29778 0.106209 7.51725L3.5743 10.8735C3.70705 11.002 3.88958 11.0769 4.08318 11.0769H21.6394C21.9602 11.0769 22.1206 10.7022 21.8938 10.4828L18.4257 7.12649Z" fill="white"/>
</svg>
